<?xml version="1.0" encoding="utf-8"?>
<!-- Generator: Adobe Illustrator 27.0.0, SVG Export Plug-In . SVG Version: 6.00 Build 0)  -->
<svg version="1.1"
	 id="svg9" xmlns:sodipodi="http://sodipodi.sourceforge.net/DTD/sodipodi-0.dtd" xmlns:cc="http://creativecommons.org/ns#" xmlns:svg="http://www.w3.org/2000/svg" xmlns:dc="http://purl.org/dc/elements/1.1/" xmlns:inkscape="http://www.inkscape.org/namespaces/inkscape" xmlns:rdf="http://www.w3.org/1999/02/22-rdf-syntax-ns#" sodipodi:docname="logo.svg"
	 xmlns="http://www.w3.org/2000/svg" xmlns:xlink="http://www.w3.org/1999/xlink" x="0px" y="0px" viewBox="0 0 165.28 36"
	 style="enable-background:new 0 0 165.28 36;" xml:space="preserve">
<style type="text/css">
	.st0{fill:#38469A;}
	.st1{fill:#050505;}
</style>
<sodipodi:namedview  bordercolor="#666666" borderopacity="1" gridtolerance="10" guidetolerance="10" id="namedview11" inkscape:pageopacity="0" inkscape:pageshadow="2" inkscape:window-height="480" inkscape:window-width="640" objecttolerance="10" pagecolor="#ffffff">
	</sodipodi:namedview>
<g>
	<path class="st0" d="M111.95,0.55h22.92c0.46,0,0.84,0.23,1.14,0.68c0.08,0.17,0.12,0.32,0.12,0.44v0.16
		c0,0.23-0.21,0.62-0.62,1.17c-5.38,7.67-8.17,11.65-8.39,11.94c-0.29,0.28-0.64,0.42-1.06,0.42c-0.5,0-0.89-0.21-1.18-0.64
		c-0.11-0.17-0.17-0.34-0.17-0.51V14.1c0-0.24,0.18-0.59,0.54-1.06c4.45-6.33,6.8-9.7,7.07-10.08h-19.96
		c-0.68,0-1.13-0.15-1.35-0.44c-0.22-0.23-0.33-0.46-0.33-0.69V1.67c0-0.4,0.26-0.73,0.77-1C111.65,0.59,111.81,0.55,111.95,0.55z
		 M121.53,19.45c0.59,0,1.03,0.28,1.31,0.84c0.04,0.11,0.06,0.22,0.06,0.33v0.09c0,0.27-0.21,0.67-0.64,1.2
		c-0.15,0.22-2.74,3.9-7.75,11.03v0.02h19.96c0.69,0,1.15,0.15,1.37,0.44c0.21,0.22,0.31,0.45,0.31,0.69v0.16
		c0,0.4-0.25,0.74-0.75,1c-0.19,0.07-0.37,0.11-0.52,0.11h-22.92c-0.48,0-0.88-0.26-1.2-0.77c-0.04-0.16-0.06-0.27-0.06-0.35v-0.16
		c0-0.26,0.23-0.68,0.7-1.26c0.14-0.23,3.16-4.55,9.08-12.95C120.79,19.59,121.14,19.45,121.53,19.45z M111.5,1.78
		c0.05,0.29,0.28,0.44,0.66,0.44h21.62v0.02l-8.21,11.73c-0.03,0.06-0.04,0.1-0.04,0.13v0.09c0,0.23,0.18,0.38,0.54,0.44h0.02
		c0.26,0,0.5-0.21,0.73-0.62c5.21-7.4,7.89-11.22,8.04-11.45c0.32-0.4,0.48-0.67,0.48-0.8V1.67c0-0.19-0.15-0.33-0.46-0.42h-22.88
		c-0.22,0-0.39,0.12-0.5,0.36V1.78z M111.5,34.2c0.05,0.29,0.28,0.44,0.66,0.44h22.51c0.33,0,0.55-0.11,0.64-0.33
		c0.01-0.06,0.02-0.11,0.02-0.15v-0.07c0-0.18-0.15-0.32-0.44-0.42h-21.82c-0.03,0-0.04-0.01-0.04-0.04
		c0.08-0.08,2.74-3.86,7.96-11.32c0.73-1.01,1.1-1.55,1.1-1.62v-0.11c0-0.2-0.15-0.34-0.44-0.44c-0.08,0-0.12-0.01-0.12-0.02
		c-0.26,0-0.51,0.22-0.75,0.68c-0.3,0.4-2.98,4.21-8.04,11.43c-0.83,1.14-1.24,1.75-1.24,1.82V34.2z"/>
	<path class="st0" d="M139.95,0.44h0.19c0.46,0,0.83,0.22,1.12,0.68c0.1,0.16,0.14,0.3,0.14,0.44v12.6c0,0.44-0.29,0.78-0.87,1.04
		c-0.19,0.06-0.37,0.09-0.52,0.09c-0.53,0-0.94-0.25-1.24-0.75c-0.05-0.16-0.08-0.28-0.08-0.38V1.56c0-0.44,0.29-0.79,0.87-1.06
		C139.73,0.46,139.86,0.44,139.95,0.44z M140.16,19.59h22.57c0.7,0,1.18,0.28,1.43,0.84c0.03,0.12,0.04,0.22,0.04,0.29v13.53
		c0,0.4-0.25,0.74-0.75,1c-0.19,0.07-0.37,0.11-0.52,0.11h-0.17c-0.46,0-0.84-0.22-1.14-0.68c-0.08-0.16-0.12-0.3-0.12-0.44V22
		h-20.1v11.91c0,0.67-0.26,1.11-0.77,1.31c-0.18,0.08-0.39,0.13-0.62,0.13c-0.53,0-0.94-0.25-1.24-0.75
		c-0.05-0.16-0.08-0.29-0.08-0.38v-13.5c0-0.39,0.24-0.72,0.73-0.98C139.61,19.64,139.86,19.59,140.16,19.59z M139.48,1.76V13.9
		c0,0.32,0.12,0.52,0.37,0.6c0.07,0.02,0.12,0.04,0.17,0.04h0.06c0.33-0.07,0.5-0.22,0.5-0.44V1.56c0-0.19-0.15-0.34-0.44-0.44
		h-0.15c-0.33,0.07-0.5,0.22-0.5,0.44C139.48,1.61,139.48,1.67,139.48,1.76z M139.5,20.76v13.42c0,0.21,0.17,0.35,0.52,0.42h0.06
		c0.29,0,0.46-0.17,0.52-0.51V21.27c0-0.01,0.01-0.02,0.04-0.02h21.64c0.03,0,0.04,0.01,0.04,0.02v12.89c0,0.26,0.18,0.41,0.54,0.47
		c0.37-0.05,0.56-0.23,0.56-0.55V20.91c0-0.41-0.24-0.62-0.73-0.62H140.2c-0.37,0-0.6,0.11-0.68,0.33
		C139.5,20.67,139.5,20.72,139.5,20.76z M162.77,0.44h0.17c0.46,0,0.84,0.22,1.14,0.68c0.08,0.16,0.12,0.3,0.12,0.44v12.6
		c0,0.44-0.29,0.78-0.87,1.04c-0.18,0.06-0.35,0.09-0.5,0.09c-0.53,0-0.93-0.24-1.22-0.73c-0.08-0.15-0.12-0.39-0.12-0.73V1.87
		c0-0.64,0.24-1.07,0.73-1.28C162.39,0.49,162.58,0.44,162.77,0.44z M162.29,1.76V13.9c0,0.32,0.12,0.52,0.35,0.6
		c0.08,0.02,0.14,0.04,0.17,0.04h0.08c0.33-0.07,0.5-0.22,0.5-0.44V1.56c0-0.19-0.15-0.34-0.46-0.44h-0.15
		c-0.32,0.07-0.48,0.22-0.48,0.44C162.3,1.61,162.29,1.67,162.29,1.76z"/>
	<path class="st1" d="M1.55,35.56V0.48h21.92c2.91,0,5.43,1.04,7.48,3.1c2.06,2.06,3.1,4.58,3.1,7.48c0,2.07-0.93,4.31-2.78,6.65
		l-0.24,0.3l0.24,0.3c1.84,2.34,2.78,4.58,2.78,6.65c0,2.91-1.04,5.42-3.1,7.48c-2.06,2.06-4.58,3.1-7.48,3.1H1.55z M4.18,32.93
		h19.29c2.19,0,4.08-0.79,5.62-2.33c1.55-1.55,2.33-3.44,2.33-5.62c0-1.64-0.46-3.15-1.37-4.5c-0.7-1.04-1.59-1.87-2.63-2.46
		c1.04-0.59,1.92-1.41,2.63-2.46c0.91-1.35,1.37-2.86,1.37-4.49c0-2.18-0.78-4.08-2.33-5.62c-1.55-1.55-3.44-2.33-5.62-2.33H4.18
		V32.93z M6.19,30.92V5.11h17.28c1.67,0,3.04,0.57,4.21,1.74c1.17,1.17,1.74,2.55,1.74,4.21c0,1.67-0.57,3.04-1.74,4.21
		s-2.55,1.74-4.21,1.74H13.09l1.16-2.63h9.21c0.92,0,1.71-0.33,2.35-0.97c0.64-0.64,0.97-1.44,0.97-2.36c0-0.92-0.33-1.71-0.97-2.35
		c-0.64-0.64-1.43-0.97-2.35-0.97H8.82v20.55h14.65c0.92,0,1.71-0.33,2.35-0.97s0.97-1.43,0.97-2.35c0-0.92-0.33-1.71-0.97-2.36
		c-0.64-0.64-1.44-0.97-2.35-0.97H11.09l1.16-2.63h11.22c1.67,0,3.04,0.57,4.21,1.74c1.17,1.17,1.74,2.55,1.74,4.21
		c0,1.66-0.57,3.04-1.74,4.21c-1.17,1.17-2.55,1.74-4.21,1.74H6.19z"/>
	<path class="st1" d="M29.62,43.22c3.63-0.12,6.76-1.65,9.3-4.53c2.54-2.9,3.83-6.38,3.83-10.37V0.48h2.63v27.84
		c0,4.73-1.59,8.88-4.72,12.35c-3.01,3.32-6.72,5.07-11.05,5.19V43.22z M29.62,38.58c2.4-0.12,4.41-1.17,5.99-3.11
		c1.66-2.03,2.51-4.44,2.51-7.16V0.48h2.63v27.84c0,3.47-1.1,6.5-3.28,9c-2.15,2.46-4.79,3.77-7.85,3.89V38.58z"/>
	<path class="st1" d="M83.45,35.56V3.11h-2.59L67.25,29.57L53.64,3.11h-2.59v32.45h-2.63V0.48h7.46l11.37,22.75L78.62,0.48h7.46
		v35.08H83.45z M78.81,35.56V19.72l-0.92-0.23l-8.36,16.07h-4.56l-8.36-16.06l-0.92,0.23v15.84h-2.63V6.09l14.19,27.37L81.44,6.09
		v29.47H78.81z"/>
</g>
</svg>
